<svg xmlns="http://www.w3.org/2000/svg" xmlns:xlink="http://www.w3.org/1999/xlink" version="1.1" x="0px" y="0px" viewBox="0 0 100 125" enable-background="new 0 0 100 100" xml:space="preserve"><path d="M84.424,16.112c-0.233-3.468-3.92-6.259-10.988-8.298C67.146,5.999,58.822,5,50,5c-8.824,0-17.147,0.999-23.438,2.814  c-7.305,2.107-11.009,5.018-11.009,8.647v67.234l0.582,2.143C19.289,92.116,35.241,95,50,95c8.723,0,16.973-0.98,23.231-2.759  c5.784-1.646,9.349-3.792,10.642-6.402l0.573-2.143V16.1L84.424,16.112z M50,9.286c19.515,0,30.16,4.74,30.16,7.176  c0,2.437-10.646,7.18-30.16,7.18s-30.16-4.743-30.16-7.18C19.84,14.026,30.485,9.286,50,9.286z M80.136,83.57  C79.993,85.995,69.227,90.714,50,90.714s-29.993-4.719-30.136-7.144l-0.024-0.34V22.389c1.725,1.02,3.968,1.93,6.723,2.725  c6.289,1.814,14.612,2.814,23.438,2.814c8.823,0,17.146-1,23.436-2.814c2.756-0.796,4.999-1.706,6.725-2.726v60.762L80.136,83.57z"/><text x="0" y="115" fill="#000000" font-size="5px" font-weight="bold" font-family="'Helvetica Neue', Helvetica, Arial-Unicode, Arial, Sans-serif">Created by Yamini Ahluwalia</text><text x="0" y="120" fill="#000000" font-size="5px" font-weight="bold" font-family="'Helvetica Neue', Helvetica, Arial-Unicode, Arial, Sans-serif">from the Noun Project</text></svg>